<?xml version="1.0" encoding="iso-8859-1"?>
<!-- Uploaded to: SVG Repo, www.svgrepo.com, Generator: SVG Repo Mixer Tools -->
<svg version="1.1" id="Layer_1" xmlns="http://www.w3.org/2000/svg" xmlns:xlink="http://www.w3.org/1999/xlink" 
	 viewBox="0 0 406.006 406.006" xml:space="preserve">
<g>
	<rect x="24.641" y="100.615" style="fill:#F9C032;" width="356.725" height="300.773"/>
	<rect x="41.006" y="182.948" style="fill:#D39816;" width="116.211" height="218.443"/>
	<rect x="54.006" y="191.948" style="fill:#F9C032;" width="90.211" height="126"/>
	<rect x="60.006" y="197.948" style="fill:#2D4151;" width="78.211" height="114"/>
	<rect x="54.006" y="323.948" style="fill:#F9C032;" width="90.211" height="64.443"/>
	<rect x="59.006" y="329.448" style="fill:#D39816;" width="80.211" height="53.443"/>
	<g>
		<g>
			<rect x="68.006" y="366.092" style="fill:#F9C032;" width="62.211" height="8.022"/>
		</g>
		<g>
			<rect x="68.006" y="339.225" style="fill:#F9C032;" width="62.211" height="8.022"/>
		</g>
		<g>
			<rect x="68.006" y="352.658" style="fill:#F9C032;" width="62.211" height="8.022"/>
		</g>
	</g>
	<g>
		<g>
			<rect x="165.98" y="366.092" style="fill:#F93030;" width="196.703" height="8.022"/>
		</g>
		<g>
			<rect x="165.98" y="339.225" style="fill:#F93030;" width="196.703" height="8.022"/>
		</g>
		<g>
			<rect x="165.98" y="352.658" style="fill:#F93030;" width="196.703" height="8.022"/>
		</g>
	</g>
	<g>
		<circle style="fill:#D8D4D5;" cx="98.831" cy="273.339" r="2.469"/>
		<g>
			<polygon style="fill:#C1B9BC;" points="110.781,282.696 98.871,273.678 87.509,282.475 87.173,282.041 98.868,272.987 
				111.113,282.258 			"/>
		</g>
		<path style="fill:#F93030;" d="M115.993,290.237c0,2.201-1.8,4-4,4H86.23c-2.2,0-4-1.799-4-4v-5.293c0-2.199,1.8-4,4-4h25.763
			c2.2,0,4,1.801,4,4C115.993,284.944,115.993,290.237,115.993,290.237z"/>
		<g>
			<path style="fill:#FAFCFC;" d="M91.057,283.334c0.601,0,1.112,0.213,1.533,0.636s0.631,0.933,0.631,1.529v4.935
				c0,0.602-0.212,1.112-0.635,1.533c-0.423,0.421-0.933,0.631-1.529,0.631c-0.601,0-1.111-0.211-1.529-0.635
				c-0.418-0.423-0.628-0.933-0.628-1.529v-4.935c0-0.601,0.212-1.112,0.635-1.533C89.957,283.545,90.465,283.334,91.057,283.334z
				 M91.8,285.471c0-0.217-0.076-0.4-0.227-0.553c-0.152-0.151-0.335-0.227-0.552-0.227c-0.216,0-0.401,0.075-0.555,0.227
				s-0.231,0.336-0.231,0.553v4.949c0,0.216,0.077,0.4,0.231,0.551c0.154,0.152,0.339,0.228,0.555,0.228
				c0.217,0,0.4-0.075,0.552-0.228c0.151-0.15,0.227-0.335,0.227-0.551V285.471z"/>
			<path style="fill:#FAFCFC;" d="M96.575,283.45c0.664,0,1.193,0.209,1.587,0.628c0.365,0.398,0.548,0.908,0.548,1.529v1.313
				c0,0.597-0.208,1.106-0.624,1.529c-0.416,0.424-0.92,0.635-1.512,0.635h-0.786v3.406h-1.364v-9.04L96.575,283.45L96.575,283.45z
				 M97.391,285.629c0-0.236-0.071-0.426-0.213-0.57s-0.331-0.217-0.566-0.217H95.79v2.894h0.822c0.217,0,0.4-0.077,0.552-0.231
				c0.151-0.153,0.227-0.338,0.227-0.555V285.629z"/>
			<path style="fill:#FAFCFC;" d="M99.8,292.491v-9.047h3.881v1.37h-2.518v2.468h1.84v1.371h-1.84v2.467h2.518v1.371H99.8z"/>
			<path style="fill:#FAFCFC;" d="M106.15,283.444l1.81,6.08v-6.08h1.364v9.047h-1.465l-1.875-5.793v5.793h-1.364v-9.047H106.15z"/>
		</g>
	</g>
	<rect x="165.98" y="182.948" style="fill:#D39816;" width="196.703" height="137"/>
	<rect x="174.98" y="191.949" style="fill:#2D4151;" width="178.703" height="118.667"/>
	<g>
		<rect x="131.616" y="27.184" style="fill:#F45353;" width="142.774" height="32.422"/>
		<path style="fill:#FCD272;" d="M274.39,73.496H131.616c-7.489,0-13.559,6.071-13.559,13.559l0,0
			c0,7.489,6.071,13.559,13.559,13.559H274.39c7.489,0,13.559-6.071,13.559-13.559l0,0C287.949,79.567,281.879,73.496,274.39,73.496
			z"/>
		<path style="fill:#B77941;" d="M274.39,46.378H131.616c-7.489,0-13.559,6.071-13.559,13.559l0,0
			c0,7.489,6.071,13.559,13.559,13.559H274.39c7.489,0,13.559-6.071,13.559-13.559l0,0C287.949,52.448,281.879,46.378,274.39,46.378
			z"/>
		<path style="fill:#FCD272;" d="M265.712,4.615H140.294c-12.281,0-22.237,9.956-22.237,22.237l0,0
			c0,7.489,6.071,13.559,13.559,13.559H274.39c7.489,0,13.559-6.071,13.559-13.559l0,0C287.949,14.571,277.993,4.615,265.712,4.615z
			"/>
		<path style="fill:#F9C032;" d="M160.362,46.378c0,0,37.424,5.424,46.644,13.559l10.305-13.559H160.362z"/>
	</g>
	<g>
		<rect x="250.493" y="268.397" style="fill:#F45353;" width="34.026" height="7.829"/>
		<path style="fill:#F7AA63;" d="M284.519,279.485h-34.026c-1.785,0-3.231,1.447-3.231,3.231l0,0c0,1.785,1.447,3.231,3.231,3.231
			h34.026c1.785,0,3.231-1.447,3.231-3.231l0,0C287.75,280.932,286.304,279.485,284.519,279.485z"/>
		<path style="fill:#B77941;" d="M284.519,273.023h-34.026c-1.785,0-3.231,1.447-3.231,3.231l0,0c0,1.785,1.447,3.231,3.231,3.231
			h34.026c1.785,0,3.231-1.447,3.231-3.231l0,0C287.75,274.469,286.304,273.023,284.519,273.023z"/>
		<path style="fill:#F7AA63;" d="M282.451,263.07h-29.889c-2.927,0-5.3,2.373-5.3,5.3l0,0c0,1.785,1.447,3.231,3.231,3.231h34.026
			c1.785,0,3.231-1.447,3.231-3.231l0,0C287.75,265.442,285.378,263.07,282.451,263.07z"/>
		<path style="fill:#F9C032;" d="M257.344,273.023c0,0,8.919,1.293,11.116,3.231l2.456-3.231H257.344z"/>
	</g>
	<polygon style="fill:#B77941;" points="406.006,122.948 0,122.948 24.584,100.615 381.422,100.615 	"/>
	<path style="fill:#E5AE35;" d="M289.55,173.948H116.457c-4.819,0-8.725-3.906-8.725-8.725V127.34c0-4.819,3.906-8.725,8.725-8.725
		H289.55c4.819,0,8.725,3.906,8.725,8.725v37.883C298.275,170.042,294.369,173.948,289.55,173.948z"/>
	<path style="fill:#F93030;" d="M381.366,128.948v-6h-83.091v-2.275c0-4.819-3.906-8.725-8.725-8.725H116.457
		c-4.819,0-8.725,3.906-8.725,8.725v2.275H24.641v6h83.091v7.667H24.641v6h83.091v7.667H24.641v6h83.091v2.275
		c0,4.819,3.906,8.725,8.725,8.725H289.55c4.819,0,8.725-3.906,8.725-8.725v-2.275h83.091v-6h-83.091v-7.667h83.091v-6h-83.091
		v-7.667H381.366z"/>
	<rect x="114.227" y="118.444" style="fill:#F9C032;" width="177.552" height="42.342"/>
	<g>
		<path style="fill:#FFFFFF;" d="M161.65,127.089c-0.214-0.471-0.085-0.686,0.429-0.729c3-0.257,6.858-2.357,9.729-2.529
			c2.186-0.128,4.287,0.557,5.058,3.472c0.771,2.872-0.043,5.272-1.5,7.158c-1.243,1.586-3.515,3.729-6.687,5.101
			c0.814,0.386,1.5,0.986,2.058,1.8c0.9,1.329,0.857,3.858-0.986,5.872c-1.886,2.057-5.101,3.558-7.501,3.986
			c-1.628,0.3-2.657,0.257-3.6-0.214c-0.857-0.429-1.629-1.157-2.186-1.972c-0.643-0.943-1.072-1.629-0.086-4.372
			c1.714-4.801,4.972-11.058,8.187-15.859C162.85,128.718,161.951,127.775,161.65,127.089z M164.094,140.805
			c-1.2,0.129-2.058,0-2.658-0.3c-1.157,2.229-2.229,4.5-2.872,6.644c-0.472,1.5,0,2.015,1.372,1.843
			c2.743-0.343,6.429-2.1,8.272-4.372c1.586-1.972,1.586-3.9-2.314-4.115C165.294,140.634,164.694,140.719,164.094,140.805z
			 M175.281,127.689c-0.857-2.229-5.101-0.257-8.058,0.686c0.085,0.943-0.214,2.229-1.286,4.2c-0.857,1.586-2.1,3.6-3.343,5.786
			C171.08,136.39,176.352,130.604,175.281,127.689z"/>
		<path style="fill:#FFFFFF;" d="M199.286,151.349c-3.343-0.086-4.629-3.043-3.558-6.472c0.9-2.872,3.558-6.086,5.358-8.144
			c-1.886,1.2-3.729,1.629-5.144,1.629c-2.229,5.658-5.872,12.516-10.501,12.901c-2.571,0.214-3.814-1.543-3.6-3.986
			c-1.5,2.014-3.644,4.115-6.001,3.943c-3.086-0.214-3.129-3.386-2.186-6.172c0.943-2.829,3.043-6.987,5.915-10.844
			c0.343-0.428,0.686-0.471,0.986-0.043c1.029,1.414,0.814,3.172-0.729,5.743c-1.5,2.529-2.572,4.243-3.386,6.258
			c-0.857,2.1-0.729,3.601,0.214,3.686c1.672,0.128,4.072-2.829,6.344-6.515c2.7-4.415,3.9-7.286,5.272-9.13
			c0.386-0.514,0.686-0.6,1.029-0.257c0.643,0.686,0.986,2.572-0.043,4.715c-0.9,1.929-3.086,5.143-4.029,7.329
			c-1.071,2.443-0.857,4.115,0.472,3.986c2.743-0.257,6.301-5.743,8.572-11.83c-3.429-1.286,0.6-7.072,2.357-7.201
			c1.372-0.086,1.029,2.572,0.086,5.401c1.5-0.214,3.043-0.9,4.715-2.015c0.514-0.428,0.943-0.557,1.286-0.129
			c0.771,0.943,1.843,2.915,0.557,4.372c-2.014,2.272-4.072,5.229-4.843,7.415c-0.814,2.357-0.3,4.072,1.072,4.158
			c1.714,0.086,3.9-2.7,5.272-5.915c0.171-0.386,0.471-0.386,0.643,0c0.214,0.471,0.3,1.5-0.214,2.786
			C204.13,149.592,201.558,151.392,199.286,151.349z"/>
		<path style="fill:#FFFFFF;" d="M213.522,152.463c-2.357,5.743-5.401,12.559-8.873,13.93c-0.857,0.343-1.714,0.214-2.486-0.9
			c-0.9-1.286-1.672-2.786-0.857-5.315c1.243-3.857,4.929-6.472,9.172-8.101c0.429-0.943,0.814-1.972,1.243-2.958
			c-1.243,1.243-2.743,2.143-4.329,2.143c-3.943,0-4.715-5.358-1.243-10.501c3.343-4.972,6.815-6.901,9.001-6.901
			c1.715,0,2.572,1.329,2.529,2.829c0.515-0.857,0.986-1.629,1.415-2.357c0.343-0.6,0.771-0.643,1.072-0.257
			c0.643,0.771,0.986,2.615-0.086,4.715c-1.286,2.572-3.986,7.758-5.786,11.916c3.6-1.8,5.958-4.158,7.672-6.429
			c0.257-0.343,0.643-0.343,0.729,0.086c0.085,0.386-0.129,1.329-0.857,2.486C220.165,149.463,217.079,151.178,213.522,152.463z
			 M203.02,163.993c0.557,0.814,3.943-3.643,6.729-10.158C204.178,157.093,202.292,162.965,203.02,163.993z M215.793,136.047
			c-1.329-0.086-4.458,2.657-6.815,6.386c-2.314,3.686-2.786,7.458-1.072,7.501c1.672,0.043,3.858-2.657,6.043-6.429
			C216.651,138.791,217.036,136.133,215.793,136.047z"/>
		<path style="fill:#FFFFFF;" d="M243.827,151.349c-3.258-0.171-4.543-3.086-3.472-6.558c0.9-2.872,3.472-6.043,5.315-8.101
			c-1.886,1.2-3.814,1.629-5.143,1.629c-3.558,7.458-8.187,12.859-13.288,12.944c-5.443,0.086-7.286-5.229-4.5-10.715
			c2.701-5.315,7.072-7.715,9.215-6.472c1.072,0.643,1.843,1.243,2.529,2.186c0.729,1.029,0.3,3.558-1.414,5.744
			c-2.015,2.615-4.886,3.686-7.887,1.286c-1.372,3.9-0.3,6.686,1.886,6.772c4.715,0.214,9.43-6.558,11.787-12.001
			c-3.3-1.372,0.9-7.072,2.7-7.158c1.329-0.043,0.9,2.572-0.171,5.358c1.5-0.214,3-0.9,4.672-2.014c0.515-0.343,0.9-0.557,1.2-0.129
			c0.857,0.943,1.929,3,0.643,4.415c-2.015,2.229-4.201,5.144-4.929,7.458c-0.729,2.357-0.214,4.072,1.072,4.115
			c1.8,0.086,3.986-2.743,5.357-5.915c0.171-0.343,0.472-0.428,0.643-0.043c0.214,0.471,0.3,1.586-0.214,2.786
			C248.757,149.506,246.185,151.478,243.827,151.349z M230.626,140.248c1.372-1.757,2.271-3.986,1.714-4.458
			c-0.943-0.814-4.458,1.886-6.429,5.829c-0.128,0.214-0.214,0.514-0.343,0.729C227.668,143.634,229.34,141.877,230.626,140.248z"/>
	</g>
	<rect x="170.156" y="285.948" style="fill:#D39816;" width="188.35" height="8.5"/>
	<g>
		<polygon style="fill:#E6E6E6;" points="226.006,249.948 202.506,249.948 205.251,285.948 223.262,285.948 		"/>
		<polygon style="fill:#F93030;" points="227.756,255.698 200.756,255.698 202.162,249.948 226.35,249.948 		"/>
	</g>
	<g>
		<polygon style="fill:#F9C032;" points="329.419,252.532 329.419,250.407 325.244,251.698 325.244,247.573 319.744,249.157 
			319.744,250.407 315.569,251.698 315.569,253.949 311.394,252.532 311.394,263.532 315.569,263.532 319.744,263.532 
			325.244,263.532 329.419,263.532 333.594,263.532 333.594,253.698 		"/>
		<polygon style="fill:#F93030;" points="335.231,259.698 309.756,259.698 312.032,285.948 332.956,285.948 		"/>
	</g>
	<path style="opacity:0.2;fill:#FCFAFA;enable-background:new    ;" d="M179.466,303.439h167.591v-95.871
		C347.055,207.568,320.142,291.695,179.466,303.439z"/>
	<rect x="174.98" y="191.949" style="fill:#FCF6D2;" width="178.703" height="24.667"/>
	<g>
		<rect x="174.98" y="211.292" style="fill:#E0D9B8;" width="178.703" height="2.646"/>
		<rect x="174.98" y="205.736" style="fill:#E0D9B8;" width="178.703" height="2.646"/>
		<rect x="174.98" y="194.625" style="fill:#E0D9B8;" width="178.703" height="2.646"/>
		<rect x="174.98" y="200.181" style="fill:#E0D9B8;" width="178.703" height="2.646"/>
	</g>
	<path style="opacity:0.2;fill:#FCFAFA;enable-background:new    ;" d="M132.195,214.939v91H80.138
		C80.138,305.939,125.818,291.325,132.195,214.939z"/>
</g>
</svg>